# xmcd
#
# Track frame offsets:
#	150
#	20114
#	41633
#	55705
#
# Disc length: 876 seconds
#
# Revision: 1
# Processed by: cddbd v1.5.2PL0 Copyright (c) Steve Scherf et al.
# Submitted via: audiograbber 1.83.01
#
DISCID=2e036a04
DTITLE=Hr. Hvidepil and Bargfeldt - Truckin'
DYEAR=2004
DGENRE=Blues
TTITLE0=Take Me Home
TTITLE1=Pony Blues
TTITLE2=Keep On Truckin'
TTITLE3=Crazy 'Bout You
EXTD=
EXTT0=
EXTT1=
EXTT2=
EXTT3=
PLAYORDER=
